<svg id="visual" viewBox="0 0 900 600" width="900" height="600" xmlns="http://www.w3.org/2000/svg" xmlns:xlink="http://www.w3.org/1999/xlink" version="1.1"><rect x="0" y="0" width="900" height="600" fill="#002233"></rect><path d="M0 210L21.5 197C43 184 86 158 128.8 144.8C171.7 131.7 214.3 131.3 257.2 134.8C300 138.3 343 145.7 385.8 159.8C428.7 174 471.3 195 514.2 200.7C557 206.3 600 196.7 642.8 182.8C685.7 169 728.3 151 771.2 155.8C814 160.7 857 188.3 878.5 202.2L900 216L900 0L878.5 0C857 0 814 0 771.2 0C728.3 0 685.7 0 642.8 0C600 0 557 0 514.2 0C471.3 0 428.7 0 385.8 0C343 0 300 0 257.2 0C214.3 0 171.7 0 128.8 0C86 0 43 0 21.5 0L0 0Z" fill="#0066FF" stroke-linecap="round" stroke-linejoin="miter"></path></svg>